#!OML:ASF F:\VICON\USERDATA\INSTALL\SteveWalk\SteveWalk.ASF
:FULLY-SPECIFIED
:DEGREES
61
root -0.774502 16.3256 -32.1705 16.2508 1.83939 1.97205
lowerback -14.1707 -1.44061 -4.98664
upperback -4.8938 -1.18514 -0.888778
thorax 2.84861 -0.570005 1.68897
lowerneck -2.87715 -1.15837 0.556749
upperneck 9.03372 -1.73603 1.64446
head 3.42253 -0.778569 0.372661
rclavicle -2.08258e-015 9.54166e-015
rhumerus -50.2173 -23.7332 -70.8715
rradius 18.4196
rwrist 5.2789
rhand -12.6592 -35.3408
rfingers 7.12502
rthumb 13.4217 -64.8884
lclavicle -2.08258e-015 9.54166e-015
lhumerus -30.3046 12.2565 77.1082
lradius 24.5148
lwrist -5.35826
lhand -17.7526 -15.4679
lfingers 7.12502
lthumb 8.50908 14.3407
rfemur -46.0614 -3.41994 21.2469
rtibia 59.4084
rfoot -15.2969 -1.8298
rtoes -0.329053
lfemur -26.7865 3.95187 -26.0522
ltibia 35.5878
lfoot -24.631 -5.70091
ltoes -4.72085
62
root -0.769082 16.3252 -31.9813 16.3791 2.58032 2.12269
lowerback -14.278 -1.6891 -5.02337
upperback -4.83341 -1.49669 -0.913279
thorax 2.99046 -0.727911 1.62873
lowerneck -2.9245 -1.24615 0.636477
upperneck 9.33721 -1.86629 1.65482
head 3.53752 -0.837006 0.356587
rclavicle -2.42797e-014 -1.66979e-014
rhumerus -51.8678 -25.4335 -68.4244
rradius 17.7534
rwrist 7.8676
rhand -12.2971 -35.7799
rfingers 7.12502
rthumb 13.7707 -65.3041
lclavicle -2.42797e-014 -1.66979e-014
lhumerus -28.9933 9.9767 77.898
lradius 25.8381
lwrist -3.07417
lhand -17.6834 -14.2635
lfingers 7.12502
lthumb 8.57588 15.5423
rfemur -46.7262 -3.88468 21.4118
rtibia 56.921
rfoot -15.4685 -2.23236
rtoes -0.0605066
lfemur -25.9277 4.0373 -26.1062
ltibia 35.0215
lfoot -25.1314 -6.17535
ltoes -5.18454
63
root -0.762987 16.3226 -31.7767 16.1455 2.81958 1.93735
lowerback -14.1949 -1.77306 -4.84204
upperback -4.62542 -1.63589 -0.787691
thorax 3.17372 -0.80388 1.63353
lowerneck -3.02707 -1.15467 0.439574
upperneck 9.07054 -1.75669 1.98656
head 3.47018 -0.778265 0.503393
rclavicle -4.73201e-015 7.95139e-016
rhumerus -53.4573 -27.2102 -65.5357
rradius 16.8487
rwrist 10.9858
rhand -12.0973 -36.0498
rfingers 7.12502
rthumb 13.9633 -65.5609
lclavicle -4.73201e-015 7.95139e-016
lhumerus -27.7984 7.97047 78.5525
lradius 27.2171
lwrist -0.901089
lhand -17.5493 -12.6432
lfingers 7.12502
lthumb 8.70527 17.1572
rfemur -46.8491 -3.81213 21.8404
rtibia 54.2245
rfoot -15.607 -2.89325
rtoes -4.79985
lfemur -24.5633 4.3641 -25.8193
ltibia 34.3488
lfoot -25.5646 -6.38853
ltoes -4.93975
64
root -0.758336 16.3172 -31.5751 15.9331 2.83111 1.58405
lowerback -13.9602 -1.78954 -4.58119
upperback -4.5626 -1.71627 -0.540806
thorax 3.11974 -0.84362 1.73639
lowerneck -3.00624 -1.1067 0.264781
upperneck 8.87646 -1.67837 2.00265
head 3.40007 -0.746626 0.542146
rclavicle -2.60905e-015 7.55382e-015
rhumerus -55.2371 -28.7416 -62.3272
rradius 15.9247
rwrist 14.1992
rhand -11.9221 -36.0082
rfingers 7.12502
rthumb 14.132 -65.5076
lclavicle -2.60905e-015 7.55382e-015
lhumerus -26.7643 6.50436 79.0772
lradius 28.398
lwrist 0.842621
lhand -17.4719 -11.2065
lfingers 7.12502
lthumb 8.78 18.5909
rfemur -46.9895 -3.45235 22.3661
rtibia 51.3589
rfoot -15.5628 -3.31244
rtoes -7.95222
lfemur -23.1968 4.8252 -25.3773
ltibia 33.5961
lfoot -25.7964 -6.81816
ltoes -3.58802
65
root -0.738865 16.3125 -31.3776 15.9183 3.26148 1.89796
lowerback -13.8424 -1.95588 -4.65651
upperback -4.60267 -1.93176 -0.578439
thorax 3.02865 -0.948043 1.70683
lowerneck -2.51669 -1.10078 0.283347
upperneck 8.53363 -1.6492 1.87915
head 3.18604 -0.741951 0.501523
rclavicle -1.20335e-014 -1.23246e-014
rhumerus -57.675 -30.7768 -58.1488
rradius 14.8729
rwrist 18.1767
rhand -11.9289 -35.4542
rfingers 7.12502
rthumb 14.1255 -64.9541
lclavicle -1.20335e-014 -1.23246e-014
lhumerus -25.7538 5.30646 79.3818
lradius 29.4234
lwrist 1.8938
lhand -17.6315 -11.0852
lfingers 7.12502
lthumb 8.62598 18.7186
rfemur -47.2555 -4.04415 22.3019
rtibia 48.42
rfoot -15.2122 -3.33706
rtoes -9.13742
lfemur -21.9084 5.11787 -25.6692
ltibia 32.7522
lfoot -26.0034 -7.7949
ltoes -1.64124
66
root -0.727281 16.3085 -31.1742 15.7769 3.55674 2.17577
lowerback -13.6731 -2.04414 -4.86038
upperback -4.58852 -2.02871 -0.62245
thorax 2.96276 -0.994634 1.7636
lowerneck -3.13802 -1.28852 0.53845
upperneck 9.17186 -1.91695 1.65781
head 3.52254 -0.865787 0.371456
rclavicle 2.24165e-014 6.36111e-015
rhumerus -60.4438 -32.579 -53.7851
rradius 14.0657
rwrist 21.9156
rhand -12.2923 -34.8692
rfingers 7.12502
rthumb 13.7753 -64.3931
lclavicle 2.24165e-014 6.36111e-015
lhumerus -24.7529 3.83765 79.6255
lradius 30.5123
lwrist 2.99494
lhand -18.0453 -12.2271
lfingers 7.12502
lthumb 8.22657 17.5928
rfemur -47.2725 -4.33437 22.1954
rtibia 45.4105
rfoot -14.5475 -3.43581
rtoes -10.6809
lfemur -20.4048 5.36604 -25.8629
ltibia 31.8438
lfoot -26.3284 -8.39064
ltoes -0.510021
67
root -0.726168 16.3062 -30.982 15.7308 3.98985 2.28217
lowerback -13.3459 -2.15431 -5.02014
upperback -4.65073 -2.17736 -0.571115
thorax 2.73751 -1.06213 1.89344
lowerneck -3.21083 -1.41372 0.571352
upperneck 9.28061 -2.09404 1.69773
head 3.57607 -0.949372 0.370989
rclavicle -5.27828e-016 1.31198e-014
rhumerus -62.6158 -33.1975 -50.96
rradius 13.8361
rwrist 24.0425
rhand -12.2949 -35.2335
rfingers 7.12502
rthumb 13.7728 -64.7577
lclavicle -5.27828e-016 1.31198e-014
lhumerus -23.7265 2.41685 79.8073
lradius 31.5127
lwrist 4.16601
lhand -18.6294 -14.1795
lfingers 7.12502
lthumb 7.66282 15.6617
rfemur -47.3881 -4.5281 22.2862
rtibia 42.3829
rfoot -13.814 -3.62658
rtoes -12.849
lfemur -19.0603 5.66451 -25.796
ltibia 30.8492
lfoot -26.5378 -8.99104
ltoes -0.00312468
68
root -0.720966 16.3001 -30.7863 15.6815 4.37604 2.29699
lowerback -13.2435 -2.23272 -4.95764
upperback -4.58958 -2.29434 -0.537449
thorax 2.754 -1.12158 1.87672
lowerneck -3.12604 -1.54879 0.505501
upperneck 9.16948 -2.27096 1.73171
head 3.52353 -1.03941 0.387195
rclavicle -7.57012e-015 -1.98785e-016
rhumerus -64.3669 -33.5839 -48.7891
rradius 13.7689
rwrist 25.7165
rhand -12.1393 -36.1276
rfingers 7.12502
rthumb 13.9227 -65.6415
lclavicle -7.57012e-015 -1.98785e-016
lhumerus -22.489 1.29589 79.8685
lradius 32.1905
lwrist 4.88424
lhand -19.3487 -15.7761
lfingers 7.12502
lthumb 6.96853 14.0892
rfemur -47.4341 -4.76697 22.4695
rtibia 39.3492
rfoot -13.2595 -3.59277
rtoes -13.6034
lfemur -17.7069 6.2279 -25.6624
ltibia 29.8226
lfoot -26.7145 -9.52355
ltoes -0.135929
69
root -0.713778 16.2942 -30.5919 15.6318 4.8345 2.21028
lowerback -13.1497 -2.30267 -4.74153
upperback -4.5793 -2.42119 -0.484205
thorax 2.71762 -1.18453 1.79369
lowerneck -2.87001 -1.60931 0.399534
upperneck 9.06543 -2.34856 1.82372
head 3.44161 -1.08027 0.434838
rclavicle 6.26327e-015 4.96962e-015
rhumerus -66.5424 -34.2706 -45.6997
rradius 13.4262
rwrist 27.9302
rhand -12.1612 -36.7075
rfingers 7.12502
rthumb 13.9017 -66.2228
lclavicle 6.26327e-015 4.96962e-015
lhumerus -21.4059 0.199693 79.8987
lradius 32.6827
lwrist 5.24328
lhand -19.9729 -17.0839
lfingers 7.12502
lthumb 6.36595 12.8004
rfemur -47.4005 -4.99959 22.7249
rtibia 36.3595
rfoot -12.7218 -3.36808
rtoes -12.7833
lfemur -16.3482 6.74312 -25.3929
ltibia 28.7848
lfoot -27.0164 -9.91148
ltoes -0.878866
70
root -0.706983 16.2853 -30.3956 15.6018 5.16969 2.19145
lowerback -13.1403 -2.3354 -4.64544
upperback -4.50595 -2.47606 -0.44605
thorax 2.79141 -1.21433 1.76961
lowerneck -2.74772 -1.5986 0.443727
upperneck 8.7562 -2.33472 1.89267
head 3.31135 -1.07285 0.451576
rclavicle -1.73269e-014 -4.37326e-015
rhumerus -68.8126 -35.0997 -42.2192
rradius 12.9911
rwrist 30.2852
rhand -12.0635 -36.9187
rfingers 7.12502
rthumb 13.9958 -66.4275
lclavicle -1.73269e-014 -4.37326e-015
lhumerus -20.3345 -0.949958 79.95
lradius 34.2192
lwrist 6.66875
lhand -19.4163 -15.3974
lfingers 7.12502
lthumb 6.9033 14.47
rfemur -47.3824 -5.11688 22.843
rtibia 33.4748
rfoot -12.1371 -3.06962
rtoes -11.8623
lfemur -14.9965 7.10836 -25.1912
ltibia 27.738
lfoot -27.3488 -10.3179
ltoes -1.12484
71
root -0.702056 16.2675 -30.1961 15.6084 5.40518 2.3847
lowerback -13.2952 -2.37646 -4.80917
upperback -4.35114 -2.49436 -0.463884
thorax 3.04431 -1.22989 1.83113
lowerneck -2.63966 -1.66134 0.486848
upperneck 8.39327 -2.41537 1.93212
head 3.16648 -1.11413 0.455362
rclavicle 1.0871e-017 2.5842e-015
rhumerus -71.4238 -36.1033 -38.0987
rradius 12.5808
rwrist 33.0934
rhand -12.0261 -36.5215
rfingers 7.12502
rthumb 14.0319 -66.0279
lclavicle 1.0871e-017 2.5842e-015
lhumerus -19.0987 -1.98863 79.9279
lradius 35.0729
lwrist 7.18192
lhand -19.4558 -15.5337
lfingers 7.12502
lthumb 6.86515 14.335
rfemur -47.4671 -5.27332 22.7442
rtibia 30.774
rfoot -11.4705 -2.59941
rtoes -11.9914
lfemur -13.6814 7.63705 -25.2011
ltibia 26.6905
lfoot -27.4627 -11.3328
ltoes 0.292898
72
root -0.697234 16.243 -29.9986 15.6972 5.83541 2.62797
lowerback -13.2843 -2.46197 -4.99916
upperback -4.36162 -2.58217 -0.482248
thorax 3.03986 -1.27261 1.90472
lowerneck -2.46766 -1.8232 0.494248
upperneck 8.30255 -2.62493 1.88633
head 3.10368 -1.22142 0.433521
rclavicle 1.96051e-014 1.09332e-014
rhumerus -73.9363 -36.5358 -34.4868
rradius 12.3435
rwrist 35.2022
rhand -12.6028 -35.6357
rfingers 7.12502
rthumb 13.476 -65.1797
lclavicle 1.96051e-014 1.09332e-014
lhumerus -17.9659 -2.94378 79.9044
lradius 35.5873
lwrist 7.45518
lhand -19.6427 -16.2572
lfingers 7.12502
lthumb 6.68476 13.6173
rfemur -47.7001 -5.6652 22.6893
rtibia 28.3045
rfoot -10.992 -1.85996
rtoes -12.8752
lfemur -12.4567 7.98887 -25.2013
ltibia 25.6253
lfoot -27.3922 -12.3954
ltoes 1.579
